<?xml version="1.0" encoding="utf-8"?>
<!-- Generator: Adobe Illustrator 21.0.2, SVG Export Plug-In . SVG Version: 6.00 Build 0)  -->
<svg version="1.1" id="logo" xmlns="http://www.w3.org/2000/svg" xmlns:xlink="http://www.w3.org/1999/xlink" x="0px" y="0px"
	 viewBox="0 0 500 500" style="enable-background:new 0 0 500 500;" xml:space="preserve">
<style type="text/css">
	.st0{fill:none;}
	.st1{fill:#336699;stroke:#000000;stroke-width:3;stroke-miterlimit:10;}
	.st2{fill:none;stroke:#000000;stroke-width:3;stroke-miterlimit:10;}
</style>
<g>
	<path d="M235,112c48.5,0,88,39.5,88,88s-39.5,88-88,88s-88-39.5-88-88S186.5,112,235,112 M235,107c-51.4,0-93,41.6-93,93
		s41.6,93,93,93s93-41.6,93-93S286.4,107,235,107L235,107z"/>
</g>
<g>
	<path class="st0" d="M235,190.3c-17.7,0-32-14.8-32-33.1s14.3-33.1,32-33.1s32,14.8,32,33.1S252.7,190.3,235,190.3z"/>
	<path d="M235,126.4c16.5,0,29.8,13.8,29.8,30.8S251.5,188,235,188s-29.8-13.8-29.8-30.8S218.5,126.4,235,126.4 M235,121.8
		c-18.9,0-34.2,15.8-34.2,35.4s15.3,35.4,34.2,35.4s34.2-15.8,34.2-35.4S253.9,121.8,235,121.8L235,121.8z"/>
</g>
<g>
	<path class="st0" d="M205.9,272.5c-15.7,0-28.6-11-28.6-24.5v-37.2c0-11,20.2-25.6,26.1-26c1.4,7.2,17.6,18.8,33.4,18.8
		c8.2,0,19.7-3,28.7-17.2c16.5,0.5,27.1,10,27.1,24.5V248c0,13.5-12.8,24.5-28.6,24.5H205.9z"/>
	<path d="M201.8,187.8c2.5,5,8.7,9.3,10.9,10.7c4.4,2.8,13.4,7.5,24.2,7.5c8.6,0,20.7-3.1,30.1-17.1c7,0.5,12.7,2.7,16.7,6.4
		c4.2,3.9,6.3,9.3,6.3,15.5V248c0,12.1-11.6,22-26,22h-58.2c-14.3,0-26-9.9-26-22v-37.2c0-3.9,3.8-9.7,10-15.1
		C194.5,191.4,199.1,188.8,201.8,187.8 M203.7,182.1c-7.2,0-29,16-29,28.6v37.2c0,14.9,14,27,31.2,27h58.2c17.1,0,31.2-12.2,31.2-27
		v-37.2c0-14.9-10.8-27-31.2-27c-7.7,12.9-17.7,17.2-27.2,17.2c-16,0-30.6-12.1-31-17C205.8,182.8,205,182.1,203.7,182.1
		L203.7,182.1z"/>
</g>
<polyline class="st1" points="226.5,201.9 226.5,234.8 234.5,245 243.5,234.8 243.5,202.9 "/>
<line class="st2" x1="226" y1="221.5" x2="243" y2="211.7"/>
<line class="st2" x1="226" y1="232.5" x2="243" y2="223.5"/>
<path class="st2" d="M226,201.5c7.7,3.3,15.3,3.3,23,0"/>
<rect id="_x3C_Фрагмент_x3E__1_" x="139" y="105" class="st0" width="191" height="191"/>
<rect id="_x3C_Фрагмент_x3E_" x="127" y="104" class="st0" width="220" height="193"/>
</svg>
